<mxfile host="app.diagrams.net" modified="2021-08-12T03:07:24.462Z" agent="5.0 (Windows NT 10.0; Win64; x64) AppleWebKit/537.36 (KHTML, like Gecko) Chrome/92.0.4515.131 Safari/537.36" etag="kg-dCC5B54IfIBA5_FVS" version="14.9.6" type="github">
  <diagram name="Page-1" id="e3a06f82-3646-2815-327d-82caf3d4e204">
    <mxGraphModel dx="4123.5" dy="2509" grid="1" gridSize="10" guides="1" tooltips="1" connect="1" arrows="1" fold="1" page="1" pageScale="1.5" pageWidth="1169" pageHeight="826" background="none" math="0" shadow="0">
      <root>
        <mxCell id="0" style=";html=1;" />
        <mxCell id="1" style=";html=1;" parent="0" />
        <mxCell id="sHXKAPFRfoizOENOdaJy-3" value="" style="edgeStyle=orthogonalEdgeStyle;rounded=0;orthogonalLoop=1;jettySize=auto;html=1;" parent="1" source="sHXKAPFRfoizOENOdaJy-1" edge="1">
          <mxGeometry relative="1" as="geometry">
            <mxPoint x="1300" y="210" as="targetPoint" />
            <Array as="points">
              <mxPoint x="970" y="210" />
            </Array>
          </mxGeometry>
        </mxCell>
        <mxCell id="sHXKAPFRfoizOENOdaJy-1" value="" style="whiteSpace=wrap;html=1;fillColor=#fff2cc;fontSize=14;strokeColor=#d6b656;verticalAlign=top;" parent="1" vertex="1">
          <mxGeometry x="830" y="110" width="520" height="520" as="geometry" />
        </mxCell>
        <mxCell id="6a7d8f32e03d9370-52" style="edgeStyle=none;rounded=0;html=1;startSize=10;endSize=10;jettySize=auto;orthogonalLoop=1;fontSize=14;endArrow=none;endFill=0;strokeWidth=2;" parent="1" source="sHXKAPFRfoizOENOdaJy-17" target="ctaD90ZbitiZ5sScprYx-26" edge="1">
          <mxGeometry relative="1" as="geometry">
            <mxPoint x="902" y="555.0154508611959" as="sourcePoint" />
            <mxPoint x="482" y="347.1179900387913" as="targetPoint" />
          </mxGeometry>
        </mxCell>
        <mxCell id="6a7d8f32e03d9370-62" value="Mall Network Architecture" style="text;strokeColor=none;fillColor=none;html=1;fontSize=24;fontStyle=1;verticalAlign=middle;align=center;" parent="1" vertex="1">
          <mxGeometry x="-31" y="-360" width="861" height="40" as="geometry" />
        </mxCell>
        <mxCell id="sHXKAPFRfoizOENOdaJy-9" value="&lt;b&gt;user api (grpc)&lt;/b&gt;" style="verticalLabelPosition=top;aspect=fixed;html=1;verticalAlign=bottom;strokeColor=none;shape=mxgraph.citrix.cache_server;fillColor=#66B2FF;gradientColor=#0066CC;fontSize=15;labelPosition=center;align=center;" parent="1" vertex="1">
          <mxGeometry x="1148" y="178.25" width="71" height="97.5" as="geometry" />
        </mxCell>
        <mxCell id="sHXKAPFRfoizOENOdaJy-12" value="&lt;b&gt;databases&lt;/b&gt;" style="whiteSpace=wrap;html=1;fillColor=#dae8fc;fontSize=14;strokeColor=#6c8ebf;verticalAlign=top;" parent="1" vertex="1">
          <mxGeometry x="2070" y="110" width="280" height="520" as="geometry" />
        </mxCell>
        <mxCell id="sHXKAPFRfoizOENOdaJy-11" value="&lt;b&gt;user (mariadb)&lt;/b&gt;" style="verticalLabelPosition=top;aspect=fixed;html=1;verticalAlign=bottom;strokeColor=none;align=center;outlineConnect=0;shape=mxgraph.citrix.database;labelPosition=center;fontSize=15;" parent="1" vertex="1">
          <mxGeometry x="2173.45" y="184" width="73.1" height="86" as="geometry" />
        </mxCell>
        <mxCell id="sHXKAPFRfoizOENOdaJy-16" value="" style="verticalLabelPosition=bottom;aspect=fixed;html=1;verticalAlign=top;strokeColor=none;align=center;outlineConnect=0;shape=mxgraph.citrix.firewall;" parent="1" vertex="1">
          <mxGeometry x="460" y="421.5" width="75" height="93" as="geometry" />
        </mxCell>
        <mxCell id="sHXKAPFRfoizOENOdaJy-17" value="&lt;b&gt;front gateway api (webflux)&lt;/b&gt;&lt;br&gt;- 사용자를 위한 게이트웨이 API" style="verticalLabelPosition=top;aspect=fixed;html=1;verticalAlign=bottom;strokeColor=none;align=center;outlineConnect=0;shape=mxgraph.citrix.proxy_server;flipH=0;flipV=0;direction=east;horizontal=1;labelPosition=center;fontSize=15;" parent="1" vertex="1">
          <mxGeometry x="610" y="412.25" width="96.05" height="113" as="geometry" />
        </mxCell>
        <mxCell id="sHXKAPFRfoizOENOdaJy-20" value="" style="edgeStyle=elbowEdgeStyle;elbow=horizontal;endArrow=classic;html=1;entryX=0.006;entryY=0.439;entryDx=0;entryDy=0;entryPerimeter=0;" parent="1" target="sHXKAPFRfoizOENOdaJy-9" edge="1">
          <mxGeometry width="50" height="50" relative="1" as="geometry">
            <mxPoint x="830" y="468" as="sourcePoint" />
            <mxPoint x="1038" y="576.5" as="targetPoint" />
            <Array as="points">
              <mxPoint x="966" y="386.5" />
              <mxPoint x="1078" y="426.5" />
            </Array>
          </mxGeometry>
        </mxCell>
        <mxCell id="sHXKAPFRfoizOENOdaJy-21" value="r2dbc" style="edgeStyle=elbowEdgeStyle;elbow=vertical;endArrow=classic;html=1;exitX=0.891;exitY=0.468;exitDx=0;exitDy=0;exitPerimeter=0;fontSize=21;" parent="1" source="sHXKAPFRfoizOENOdaJy-9" target="sHXKAPFRfoizOENOdaJy-11" edge="1">
          <mxGeometry width="50" height="50" relative="1" as="geometry">
            <mxPoint x="980" y="590" as="sourcePoint" />
            <mxPoint x="1030" y="540" as="targetPoint" />
          </mxGeometry>
        </mxCell>
        <mxCell id="t2RJurVs9qFkmTVlhtLP-3" value="&lt;b&gt;aws elasticache&lt;/b&gt;&lt;br&gt;&lt;div style=&quot;text-align: left&quot;&gt;&lt;span&gt;- 이것도 일단 적어둠&lt;/span&gt;&lt;/div&gt;&lt;div style=&quot;text-align: left&quot;&gt;&lt;span&gt;- Redis 를 대체&lt;/span&gt;&lt;/div&gt;" style="verticalLabelPosition=top;aspect=fixed;html=1;verticalAlign=bottom;strokeColor=none;align=center;outlineConnect=0;shape=mxgraph.citrix.cache_server;labelPosition=center;fontSize=15;" parent="1" vertex="1">
          <mxGeometry x="850" y="305.75" width="71" height="97.5" as="geometry" />
        </mxCell>
        <mxCell id="t2RJurVs9qFkmTVlhtLP-10" value="&lt;b&gt;kafka (msg broker)&lt;/b&gt;" style="whiteSpace=wrap;html=1;fontSize=14;verticalAlign=top;fillColor=#fad7ac;strokeColor=#b46504;" parent="1" vertex="1">
          <mxGeometry x="1410" y="420" width="250" height="210" as="geometry" />
        </mxCell>
        <mxCell id="t2RJurVs9qFkmTVlhtLP-12" value="&lt;b&gt;order (postgresql)&lt;/b&gt;" style="verticalLabelPosition=top;aspect=fixed;html=1;verticalAlign=bottom;strokeColor=none;align=center;outlineConnect=0;shape=mxgraph.citrix.database;labelPosition=center;fontSize=15;" parent="1" vertex="1">
          <mxGeometry x="2173.45" y="454.25" width="73.1" height="86" as="geometry" />
        </mxCell>
        <mxCell id="t2RJurVs9qFkmTVlhtLP-13" value="&lt;b&gt;goods (mariadb)&lt;/b&gt;" style="verticalLabelPosition=top;aspect=fixed;html=1;verticalAlign=bottom;strokeColor=none;align=center;outlineConnect=0;shape=mxgraph.citrix.database;labelPosition=center;fontSize=15;" parent="1" vertex="1">
          <mxGeometry x="2173.45" y="317.25" width="73.1" height="86" as="geometry" />
        </mxCell>
        <mxCell id="t2RJurVs9qFkmTVlhtLP-15" value="&lt;b&gt;consumer&lt;/b&gt;" style="whiteSpace=wrap;html=1;fontSize=14;verticalAlign=top;fillColor=#fad7ac;strokeColor=#b46504;" parent="1" vertex="1">
          <mxGeometry x="1740" y="420" width="240" height="210" as="geometry" />
        </mxCell>
        <mxCell id="t2RJurVs9qFkmTVlhtLP-17" value="" style="verticalLabelPosition=top;aspect=fixed;html=1;verticalAlign=bottom;strokeColor=none;shape=mxgraph.citrix.cache_server;fillColor=#66B2FF;gradientColor=#0066CC;fontSize=15;labelPosition=center;align=center;" parent="1" vertex="1">
          <mxGeometry x="1780" y="454.25" width="71" height="97.5" as="geometry" />
        </mxCell>
        <mxCell id="t2RJurVs9qFkmTVlhtLP-19" value="&lt;b&gt;order api (grpc)&lt;/b&gt;" style="verticalLabelPosition=top;aspect=fixed;html=1;verticalAlign=bottom;strokeColor=none;shape=mxgraph.citrix.cache_server;fillColor=#66B2FF;gradientColor=#0066CC;fontSize=15;labelPosition=center;align=center;" parent="1" vertex="1">
          <mxGeometry x="1140" y="496.5" width="71" height="97.5" as="geometry" />
        </mxCell>
        <mxCell id="t2RJurVs9qFkmTVlhtLP-21" value="&lt;b&gt;goods api (grpc)&lt;/b&gt;" style="verticalLabelPosition=top;aspect=fixed;html=1;verticalAlign=bottom;strokeColor=none;shape=mxgraph.citrix.cache_server;fillColor=#66B2FF;gradientColor=#0066CC;fontSize=15;labelPosition=center;align=center;" parent="1" vertex="1">
          <mxGeometry x="1140" y="339.25" width="71" height="97.5" as="geometry" />
        </mxCell>
        <mxCell id="t2RJurVs9qFkmTVlhtLP-23" value="" style="verticalLabelPosition=top;aspect=fixed;html=1;verticalAlign=bottom;strokeColor=none;shape=mxgraph.citrix.cache_server;fillColor=#66B2FF;gradientColor=#0066CC;fontSize=15;labelPosition=center;align=center;" parent="1" vertex="1">
          <mxGeometry x="1880" y="532.5" width="71" height="97.5" as="geometry" />
        </mxCell>
        <mxCell id="t2RJurVs9qFkmTVlhtLP-24" value="" style="edgeStyle=elbowEdgeStyle;elbow=vertical;endArrow=classic;html=1;" parent="1" source="t2RJurVs9qFkmTVlhtLP-15" target="t2RJurVs9qFkmTVlhtLP-12" edge="1">
          <mxGeometry width="50" height="50" relative="1" as="geometry">
            <mxPoint x="1213.261" y="202.3800000000001" as="sourcePoint" />
            <mxPoint x="2183.45" y="201.66666666666674" as="targetPoint" />
          </mxGeometry>
        </mxCell>
        <mxCell id="t2RJurVs9qFkmTVlhtLP-27" value="" style="verticalLabelPosition=bottom;aspect=fixed;html=1;verticalAlign=top;strokeColor=none;align=center;outlineConnect=0;shape=mxgraph.citrix.role_applications;fontSize=15;" parent="1" vertex="1">
          <mxGeometry x="1482.12" y="488.25" width="105.75" height="105.75" as="geometry" />
        </mxCell>
        <mxCell id="t2RJurVs9qFkmTVlhtLP-28" value="" style="endArrow=classic;startArrow=classic;html=1;fontSize=15;" parent="1" edge="1">
          <mxGeometry width="50" height="50" relative="1" as="geometry">
            <mxPoint x="980" y="704" as="sourcePoint" />
            <mxPoint x="980" y="620" as="targetPoint" />
          </mxGeometry>
        </mxCell>
        <mxCell id="t2RJurVs9qFkmTVlhtLP-29" value="" style="edgeStyle=elbowEdgeStyle;elbow=horizontal;endArrow=classic;html=1;" parent="1" edge="1">
          <mxGeometry width="50" height="50" relative="1" as="geometry">
            <mxPoint x="830" y="468" as="sourcePoint" />
            <mxPoint x="1138" y="384.5" as="targetPoint" />
            <Array as="points">
              <mxPoint x="966" y="386.5" />
              <mxPoint x="976" y="396.5" />
              <mxPoint x="1088" y="436.5" />
            </Array>
          </mxGeometry>
        </mxCell>
        <mxCell id="t2RJurVs9qFkmTVlhtLP-30" value="" style="edgeStyle=elbowEdgeStyle;elbow=horizontal;endArrow=classic;html=1;" parent="1" edge="1">
          <mxGeometry width="50" height="50" relative="1" as="geometry">
            <mxPoint x="830" y="470" as="sourcePoint" />
            <mxPoint x="1148" y="548.5" as="targetPoint" />
            <Array as="points">
              <mxPoint x="1098" y="446.5" />
            </Array>
          </mxGeometry>
        </mxCell>
        <mxCell id="t2RJurVs9qFkmTVlhtLP-31" style="edgeStyle=none;rounded=0;html=1;startSize=10;endSize=10;jettySize=auto;orthogonalLoop=1;fontSize=14;endArrow=none;endFill=0;strokeWidth=2;entryX=0.958;entryY=0.427;entryDx=0;entryDy=0;entryPerimeter=0;" parent="1" source="t2RJurVs9qFkmTVlhtLP-27" target="t2RJurVs9qFkmTVlhtLP-19" edge="1">
          <mxGeometry relative="1" as="geometry">
            <mxPoint x="920" y="509.41146257363175" as="sourcePoint" />
            <mxPoint x="492" y="357.1179900387913" as="targetPoint" />
          </mxGeometry>
        </mxCell>
        <mxCell id="t2RJurVs9qFkmTVlhtLP-32" style="edgeStyle=none;rounded=0;html=1;startSize=10;endSize=10;jettySize=auto;orthogonalLoop=1;fontSize=14;endArrow=none;endFill=0;strokeWidth=2;exitX=0.031;exitY=0.615;exitDx=0;exitDy=0;exitPerimeter=0;" parent="1" source="t2RJurVs9qFkmTVlhtLP-17" target="t2RJurVs9qFkmTVlhtLP-27" edge="1">
          <mxGeometry relative="1" as="geometry">
            <mxPoint x="1820" y="400" as="sourcePoint" />
            <mxPoint x="1590" y="450" as="targetPoint" />
          </mxGeometry>
        </mxCell>
        <mxCell id="t2RJurVs9qFkmTVlhtLP-33" style="edgeStyle=none;rounded=0;html=1;startSize=10;endSize=10;jettySize=auto;orthogonalLoop=1;fontSize=14;endArrow=none;endFill=0;strokeWidth=2;exitX=0.031;exitY=0.397;exitDx=0;exitDy=0;exitPerimeter=0;" parent="1" source="t2RJurVs9qFkmTVlhtLP-23" edge="1" target="t2RJurVs9qFkmTVlhtLP-27">
          <mxGeometry relative="1" as="geometry">
            <mxPoint x="1839.9799999999996" y="410.2505133661002" as="sourcePoint" />
            <mxPoint x="1580" y="450" as="targetPoint" />
          </mxGeometry>
        </mxCell>
        <mxCell id="t2RJurVs9qFkmTVlhtLP-36" value="elk (elasticsearch. logstash, kibana) ??" style="whiteSpace=wrap;html=1;fillColor=#eeeeee;fontSize=14;strokeColor=#36393d;verticalAlign=top;" parent="1" vertex="1">
          <mxGeometry x="2070" y="-150" width="280" height="230" as="geometry" />
        </mxCell>
        <mxCell id="t2RJurVs9qFkmTVlhtLP-37" value="" style="edgeStyle=elbowEdgeStyle;elbow=vertical;endArrow=classic;html=1;exitX=0.817;exitY=0.468;exitDx=0;exitDy=0;exitPerimeter=0;" parent="1" source="t2RJurVs9qFkmTVlhtLP-21" target="t2RJurVs9qFkmTVlhtLP-13" edge="1">
          <mxGeometry width="50" height="50" relative="1" as="geometry">
            <mxPoint x="1213.261" y="202.3800000000001" as="sourcePoint" />
            <mxPoint x="2183.45" y="201.66666666666674" as="targetPoint" />
            <Array as="points">
              <mxPoint x="1860" y="386" />
            </Array>
          </mxGeometry>
        </mxCell>
        <mxCell id="t2RJurVs9qFkmTVlhtLP-39" value="&lt;b&gt;aws s3 (simple storage service)&amp;nbsp;&lt;/b&gt;&lt;br&gt;&lt;div style=&quot;text-align: left&quot;&gt;&lt;span&gt;- 잘모르고 일단 적어둠&lt;/span&gt;&lt;/div&gt;&lt;div style=&quot;text-align: left&quot;&gt;&lt;span&gt;- object storage 를 활용해서 API를 통한 업로드 및 s3에 NLB를 붙여서 이미지는 URL로 보여지게 한다.&lt;/span&gt;&lt;/div&gt;&lt;div style=&quot;text-align: left&quot;&gt;&lt;span&gt;- s3 에서는 Access 제어가 가능해서 코드를 통해 token 방식 제어(관리자만 봐야할 파일은 관리자 인증을 받아 볼 수 있도록..&lt;/span&gt;&lt;/div&gt;&lt;div style=&quot;text-align: left&quot;&gt;&lt;span&gt;- 속도에 대한 건 이미지 캐싱서비스를 aws에서 제공할지 확인 필요&lt;/span&gt;&lt;/div&gt;" style="verticalLabelPosition=top;aspect=fixed;html=1;verticalAlign=bottom;strokeColor=none;align=center;outlineConnect=0;shape=mxgraph.citrix.file_server;fontSize=15;labelPosition=center;" parent="1" vertex="1">
          <mxGeometry x="859.5" y="142.5" width="71" height="97" as="geometry" />
        </mxCell>
        <mxCell id="t2RJurVs9qFkmTVlhtLP-40" value="" style="verticalLabelPosition=bottom;aspect=fixed;html=1;verticalAlign=top;strokeColor=none;align=center;outlineConnect=0;shape=mxgraph.citrix.inspection;fontSize=15;" parent="1" vertex="1">
          <mxGeometry x="2130" y="-110" width="70" height="65" as="geometry" />
        </mxCell>
        <mxCell id="t2RJurVs9qFkmTVlhtLP-41" value="" style="verticalLabelPosition=bottom;aspect=fixed;html=1;verticalAlign=top;strokeColor=none;align=center;outlineConnect=0;shape=mxgraph.citrix.database_server;fontSize=15;" parent="1" vertex="1">
          <mxGeometry x="2240" y="-80" width="80" height="90" as="geometry" />
        </mxCell>
        <mxCell id="t2RJurVs9qFkmTVlhtLP-42" value="" style="verticalLabelPosition=bottom;aspect=fixed;html=1;verticalAlign=top;strokeColor=none;align=center;outlineConnect=0;shape=mxgraph.citrix.process;fontSize=15;" parent="1" vertex="1">
          <mxGeometry x="2110" y="-22" width="52" height="62" as="geometry" />
        </mxCell>
        <mxCell id="ctaD90ZbitiZ5sScprYx-11" value="" style="whiteSpace=wrap;html=1;fillColor=#f8cecc;fontSize=14;strokeColor=none;verticalAlign=top;" parent="1" vertex="1">
          <mxGeometry x="900" y="-576.5899999999999" width="360" height="310" as="geometry" />
        </mxCell>
        <mxCell id="ctaD90ZbitiZ5sScprYx-12" style="edgeStyle=none;rounded=0;html=1;startSize=10;endSize=10;jettySize=auto;orthogonalLoop=1;fontSize=14;endArrow=none;endFill=0;strokeWidth=2;" parent="1" source="ctaD90ZbitiZ5sScprYx-18" target="ctaD90ZbitiZ5sScprYx-31" edge="1">
          <mxGeometry relative="1" as="geometry">
            <mxPoint x="1141.9606741573034" y="-342.5899999999999" as="sourcePoint" />
            <mxPoint x="1028.9999999999998" y="-428.6009011627907" as="targetPoint" />
          </mxGeometry>
        </mxCell>
        <mxCell id="ctaD90ZbitiZ5sScprYx-14" style="edgeStyle=none;rounded=0;html=1;startSize=10;endSize=10;jettySize=auto;orthogonalLoop=1;fontSize=14;endArrow=none;endFill=0;strokeWidth=2;" parent="1" source="ctaD90ZbitiZ5sScprYx-18" target="ctaD90ZbitiZ5sScprYx-27" edge="1">
          <mxGeometry relative="1" as="geometry">
            <mxPoint x="1130" y="-313.27013698630117" as="sourcePoint" />
            <mxPoint x="1049.995" y="-315.83400000000006" as="targetPoint" />
          </mxGeometry>
        </mxCell>
        <mxCell id="ctaD90ZbitiZ5sScprYx-18" value="back-office" style="verticalLabelPosition=bottom;aspect=fixed;html=1;verticalAlign=top;strokeColor=none;align=center;outlineConnect=0;shape=mxgraph.citrix.cache_server;labelPosition=center;fontSize=15;" parent="1" vertex="1">
          <mxGeometry x="1044.5" y="-449.9999999999999" width="71" height="97.5" as="geometry" />
        </mxCell>
        <mxCell id="ctaD90ZbitiZ5sScprYx-19" value="Outside Networks" style="whiteSpace=wrap;html=1;fillColor=#f8cecc;fontSize=14;strokeColor=none;verticalAlign=top;" parent="1" vertex="1">
          <mxGeometry x="-20" y="240" width="360" height="330" as="geometry" />
        </mxCell>
        <mxCell id="ctaD90ZbitiZ5sScprYx-20" style="edgeStyle=none;rounded=0;html=1;startSize=10;endSize=10;jettySize=auto;orthogonalLoop=1;fontSize=14;endArrow=none;endFill=0;strokeWidth=2;" parent="1" target="ctaD90ZbitiZ5sScprYx-29" edge="1">
          <mxGeometry relative="1" as="geometry">
            <mxPoint x="230" y="446.5" as="sourcePoint" />
            <mxPoint x="108.99999999999977" y="371.1404109589041" as="targetPoint" />
          </mxGeometry>
        </mxCell>
        <mxCell id="ctaD90ZbitiZ5sScprYx-21" style="edgeStyle=none;rounded=0;html=1;startSize=10;endSize=10;jettySize=auto;orthogonalLoop=1;fontSize=14;endArrow=none;endFill=0;strokeWidth=2;entryX=0.571;entryY=0.736;entryDx=0;entryDy=0;entryPerimeter=0;" parent="1" source="ctaD90ZbitiZ5sScprYx-26" target="ctaD90ZbitiZ5sScprYx-24" edge="1">
          <mxGeometry relative="1" as="geometry">
            <mxPoint x="249.7865064695011" y="440" as="sourcePoint" />
          </mxGeometry>
        </mxCell>
        <mxCell id="ctaD90ZbitiZ5sScprYx-22" style="edgeStyle=none;rounded=0;html=1;startSize=10;endSize=10;jettySize=auto;orthogonalLoop=1;fontSize=14;endArrow=none;endFill=0;strokeWidth=2;" parent="1" source="ctaD90ZbitiZ5sScprYx-26" target="ctaD90ZbitiZ5sScprYx-28" edge="1">
          <mxGeometry relative="1" as="geometry">
            <mxPoint x="210" y="469.3198630136985" as="sourcePoint" />
            <mxPoint x="109" y="488.1363013698631" as="targetPoint" />
          </mxGeometry>
        </mxCell>
        <mxCell id="ctaD90ZbitiZ5sScprYx-24" value="user" style="verticalLabelPosition=top;aspect=fixed;html=1;verticalAlign=bottom;strokeColor=none;shape=mxgraph.citrix.thin_client;fillColor=#66B2FF;gradientColor=#0066CC;fontSize=14;labelPosition=center;align=center;" parent="1" vertex="1">
          <mxGeometry x="180" y="290" width="71" height="71" as="geometry" />
        </mxCell>
        <mxCell id="ctaD90ZbitiZ5sScprYx-26" value="front" style="verticalLabelPosition=bottom;aspect=fixed;html=1;verticalAlign=top;strokeColor=none;align=center;outlineConnect=0;shape=mxgraph.citrix.cache_server;labelPosition=center;fontSize=15;" parent="1" vertex="1">
          <mxGeometry x="220" y="420" width="71" height="97.5" as="geometry" />
        </mxCell>
        <mxCell id="ctaD90ZbitiZ5sScprYx-27" value="admin" style="verticalLabelPosition=top;aspect=fixed;html=1;verticalAlign=bottom;strokeColor=none;align=center;outlineConnect=0;shape=mxgraph.citrix.cell_phone;labelPosition=center;" parent="1" vertex="1">
          <mxGeometry x="980" y="-539.9999999999999" width="25" height="60" as="geometry" />
        </mxCell>
        <mxCell id="ctaD90ZbitiZ5sScprYx-28" value="user" style="verticalLabelPosition=top;aspect=fixed;html=1;verticalAlign=bottom;strokeColor=none;align=center;outlineConnect=0;shape=mxgraph.citrix.cell_phone;labelPosition=center;" parent="1" vertex="1">
          <mxGeometry x="80" y="458" width="25" height="60" as="geometry" />
        </mxCell>
        <mxCell id="ctaD90ZbitiZ5sScprYx-29" value="user" style="verticalLabelPosition=top;aspect=fixed;html=1;verticalAlign=bottom;strokeColor=none;align=center;outlineConnect=0;shape=mxgraph.citrix.laptop_1;labelPosition=center;" parent="1" vertex="1">
          <mxGeometry x="14" y="319.5" width="91" height="77" as="geometry" />
        </mxCell>
        <mxCell id="ctaD90ZbitiZ5sScprYx-30" style="edgeStyle=none;rounded=0;html=1;startSize=10;endSize=10;jettySize=auto;orthogonalLoop=1;fontSize=14;endArrow=none;endFill=0;strokeWidth=2;" parent="1" source="nXejHex8dQO22QH_vP11-1" target="ctaD90ZbitiZ5sScprYx-18" edge="1">
          <mxGeometry relative="1" as="geometry">
            <mxPoint x="1669.9999999999995" y="-630.0008140462887" as="sourcePoint" />
            <mxPoint x="1221" y="-760.0571494296041" as="targetPoint" />
          </mxGeometry>
        </mxCell>
        <mxCell id="ctaD90ZbitiZ5sScprYx-31" value="admin" style="verticalLabelPosition=top;aspect=fixed;html=1;verticalAlign=bottom;strokeColor=none;align=center;outlineConnect=0;shape=mxgraph.citrix.laptop_1;labelPosition=center;" parent="1" vertex="1">
          <mxGeometry x="1115.5" y="-556.9999999999999" width="91" height="77" as="geometry" />
        </mxCell>
        <mxCell id="ctaD90ZbitiZ5sScprYx-32" value="" style="verticalLabelPosition=bottom;aspect=fixed;html=1;verticalAlign=top;strokeColor=none;align=center;outlineConnect=0;shape=mxgraph.citrix.firewall;" parent="1" vertex="1">
          <mxGeometry x="1042.5" y="-229.99999999999994" width="75" height="93" as="geometry" />
        </mxCell>
        <mxCell id="nXejHex8dQO22QH_vP11-1" value="&lt;b&gt;back-office gateway api (webflux)&lt;/b&gt;&lt;br&gt;- 관리자를 위한 게이트웨이 API" style="verticalLabelPosition=top;aspect=fixed;html=1;verticalAlign=bottom;strokeColor=none;align=center;outlineConnect=0;shape=mxgraph.citrix.proxy_server;flipH=0;flipV=0;direction=east;horizontal=1;labelPosition=center;fontSize=15;" parent="1" vertex="1">
          <mxGeometry x="1033.97" y="-73" width="96.05" height="113" as="geometry" />
        </mxCell>
        <mxCell id="nXejHex8dQO22QH_vP11-3" value="" style="edgeStyle=elbowEdgeStyle;elbow=horizontal;endArrow=classic;html=1;entryX=0.5;entryY=0;entryDx=0;entryDy=0;" parent="1" source="nXejHex8dQO22QH_vP11-1" target="sHXKAPFRfoizOENOdaJy-1" edge="1">
          <mxGeometry width="50" height="50" relative="1" as="geometry">
            <mxPoint x="976" y="506.5" as="sourcePoint" />
            <mxPoint x="980" y="100" as="targetPoint" />
            <Array as="points">
              <mxPoint x="1082" y="90" />
              <mxPoint x="1082" y="40" />
              <mxPoint x="976" y="396.5" />
              <mxPoint x="1088" y="436.5" />
            </Array>
          </mxGeometry>
        </mxCell>
        <mxCell id="nXejHex8dQO22QH_vP11-4" value="" style="edgeStyle=elbowEdgeStyle;elbow=horizontal;endArrow=classic;html=1;entryX=0;entryY=0.701;entryDx=0;entryDy=0;entryPerimeter=0;" parent="1" source="sHXKAPFRfoizOENOdaJy-17" target="sHXKAPFRfoizOENOdaJy-1" edge="1">
          <mxGeometry width="50" height="50" relative="1" as="geometry">
            <mxPoint x="753.9700000000003" y="120" as="sourcePoint" />
            <mxPoint x="700" y="236.5" as="targetPoint" />
            <Array as="points">
              <mxPoint x="690" y="440" />
              <mxPoint x="696" y="533" />
              <mxPoint x="808" y="573" />
            </Array>
          </mxGeometry>
        </mxCell>
        <mxCell id="nXejHex8dQO22QH_vP11-8" value="&lt;div&gt;&lt;span&gt;- 구성 순서 -&lt;/span&gt;&lt;/div&gt;&lt;div style=&quot;text-align: left&quot;&gt;&lt;span&gt;1. gateway api 구성&lt;/span&gt;&lt;/div&gt;&lt;div style=&quot;text-align: left&quot;&gt;&lt;span&gt;2. vpc + network 구조 만들기&lt;/span&gt;&lt;/div&gt;&lt;div style=&quot;text-align: left&quot;&gt;&lt;span&gt;3. 내부 통신으로 도메인별 api 구성&lt;/span&gt;&lt;/div&gt;&lt;div style=&quot;text-align: left&quot;&gt;&lt;span&gt;4. db 구성&lt;/span&gt;&lt;/div&gt;&lt;div style=&quot;text-align: left&quot;&gt;&lt;span&gt;5. 카프카 구성 및 소비자 어플리케이션 구성&lt;/span&gt;&lt;/div&gt;&lt;div style=&quot;text-align: left&quot;&gt;&lt;span&gt;6. elk? elg? 구성&lt;/span&gt;&lt;/div&gt;" style="whiteSpace=wrap;html=1;fontSize=14;verticalAlign=top;" parent="1" vertex="1">
          <mxGeometry x="205.5" y="-319.9999999999999" width="360" height="310" as="geometry" />
        </mxCell>
      </root>
    </mxGraphModel>
  </diagram>
</mxfile>
